<mxfile host="app.diagrams.net" modified="2023-04-19T17:28:01.377Z" agent="Mozilla/5.0 (Windows NT 10.0; Win64; x64) AppleWebKit/537.36 (KHTML, like Gecko) Chrome/112.0.0.0 Safari/537.36" etag="bvlDadRgwdGZkF4IyfSk" version="21.2.0" type="device">
  <diagram name="Página-1" id="WqattzCUoaYSstp4FgDH">
    <mxGraphModel dx="2670" dy="701" grid="1" gridSize="10" guides="1" tooltips="1" connect="1" arrows="1" fold="1" page="1" pageScale="1" pageWidth="827" pageHeight="1169" math="0" shadow="0">
      <root>
        <mxCell id="0" />
        <mxCell id="1" parent="0" />
        <mxCell id="Qn465LdnRMyvGribWFui-1" value="&lt;u&gt;Matrícula&lt;/u&gt;" style="rounded=0;whiteSpace=wrap;html=1;" parent="1" vertex="1">
          <mxGeometry x="40" y="330" width="80" height="30" as="geometry" />
        </mxCell>
        <mxCell id="Qn465LdnRMyvGribWFui-2" value="Veículo" style="text;html=1;align=center;verticalAlign=middle;resizable=0;points=[];autosize=1;strokeColor=none;fillColor=none;" parent="1" vertex="1">
          <mxGeometry x="95" y="300" width="60" height="30" as="geometry" />
        </mxCell>
        <mxCell id="Qn465LdnRMyvGribWFui-3" value="Marca" style="rounded=0;whiteSpace=wrap;html=1;" parent="1" vertex="1">
          <mxGeometry x="120" y="330" width="70" height="30" as="geometry" />
        </mxCell>
        <mxCell id="Qn465LdnRMyvGribWFui-4" value="Modelo" style="rounded=0;whiteSpace=wrap;html=1;" parent="1" vertex="1">
          <mxGeometry x="190" y="330" width="70" height="30" as="geometry" />
        </mxCell>
        <mxCell id="Qn465LdnRMyvGribWFui-5" value="Ano" style="rounded=0;whiteSpace=wrap;html=1;" parent="1" vertex="1">
          <mxGeometry x="260" y="330" width="60" height="30" as="geometry" />
        </mxCell>
        <mxCell id="Qn465LdnRMyvGribWFui-6" value="Combustível" style="rounded=0;whiteSpace=wrap;html=1;" parent="1" vertex="1">
          <mxGeometry x="320" y="330" width="90" height="30" as="geometry" />
        </mxCell>
        <mxCell id="Qn465LdnRMyvGribWFui-7" value="Condição" style="rounded=0;whiteSpace=wrap;html=1;" parent="1" vertex="1">
          <mxGeometry x="320" y="360" width="90" height="30" as="geometry" />
        </mxCell>
        <mxCell id="Qn465LdnRMyvGribWFui-8" value="Kms" style="rounded=0;whiteSpace=wrap;html=1;" parent="1" vertex="1">
          <mxGeometry x="260" y="360" width="60" height="30" as="geometry" />
        </mxCell>
        <mxCell id="Qn465LdnRMyvGribWFui-10" value="Cilindrada" style="rounded=0;whiteSpace=wrap;html=1;" parent="1" vertex="1">
          <mxGeometry x="40" y="360" width="80" height="30" as="geometry" />
        </mxCell>
        <mxCell id="Qn465LdnRMyvGribWFui-16" value="Potência" style="rounded=0;whiteSpace=wrap;html=1;" parent="1" vertex="1">
          <mxGeometry x="120" y="360" width="70" height="30" as="geometry" />
        </mxCell>
        <mxCell id="Qn465LdnRMyvGribWFui-17" value="Origem" style="rounded=0;whiteSpace=wrap;html=1;" parent="1" vertex="1">
          <mxGeometry x="190" y="360" width="70" height="30" as="geometry" />
        </mxCell>
        <mxCell id="Qn465LdnRMyvGribWFui-18" value="Stand Auto" style="text;html=1;align=center;verticalAlign=middle;resizable=0;points=[];autosize=1;strokeColor=none;fillColor=none;" parent="1" vertex="1">
          <mxGeometry x="725" y="300" width="80" height="30" as="geometry" />
        </mxCell>
        <mxCell id="Qn465LdnRMyvGribWFui-19" value="&lt;u&gt;ID Stand&lt;/u&gt;" style="rounded=0;whiteSpace=wrap;html=1;" parent="1" vertex="1">
          <mxGeometry x="680" y="330" width="80" height="30" as="geometry" />
        </mxCell>
        <mxCell id="Qn465LdnRMyvGribWFui-20" value="País" style="rounded=0;whiteSpace=wrap;html=1;" parent="1" vertex="1">
          <mxGeometry x="760" y="330" width="60" height="30" as="geometry" />
        </mxCell>
        <mxCell id="Qn465LdnRMyvGribWFui-21" value="Endereço" style="rounded=0;whiteSpace=wrap;html=1;" parent="1" vertex="1">
          <mxGeometry x="820" y="330" width="80" height="30" as="geometry" />
        </mxCell>
        <mxCell id="Qn465LdnRMyvGribWFui-22" value="Stand Auto" style="rounded=0;whiteSpace=wrap;html=1;" parent="1" vertex="1">
          <mxGeometry x="410" y="330" width="80" height="30" as="geometry" />
        </mxCell>
        <mxCell id="Qn465LdnRMyvGribWFui-23" value="Stand Auto" style="rounded=0;whiteSpace=wrap;html=1;" parent="1" vertex="1">
          <mxGeometry x="680" y="410" width="80" height="30" as="geometry" />
        </mxCell>
        <mxCell id="Qn465LdnRMyvGribWFui-24" value="Funcionário" style="text;html=1;align=center;verticalAlign=middle;resizable=0;points=[];autosize=1;strokeColor=none;fillColor=none;" parent="1" vertex="1">
          <mxGeometry x="700" y="380" width="90" height="30" as="geometry" />
        </mxCell>
        <mxCell id="Qn465LdnRMyvGribWFui-25" value="&lt;u&gt;ID Funcionario&lt;/u&gt;" style="rounded=0;whiteSpace=wrap;html=1;" parent="1" vertex="1">
          <mxGeometry x="760" y="410" width="80" height="30" as="geometry" />
        </mxCell>
        <mxCell id="Qn465LdnRMyvGribWFui-26" value="Nome" style="rounded=0;whiteSpace=wrap;html=1;" parent="1" vertex="1">
          <mxGeometry x="840" y="410" width="60" height="30" as="geometry" />
        </mxCell>
        <mxCell id="Qn465LdnRMyvGribWFui-27" value="Email" style="rounded=0;whiteSpace=wrap;html=1;" parent="1" vertex="1">
          <mxGeometry x="900" y="410" width="80" height="30" as="geometry" />
        </mxCell>
        <mxCell id="Qn465LdnRMyvGribWFui-28" value="Telefone" style="rounded=0;whiteSpace=wrap;html=1;" parent="1" vertex="1">
          <mxGeometry x="980" y="410" width="70" height="30" as="geometry" />
        </mxCell>
        <mxCell id="Qn465LdnRMyvGribWFui-30" value="Cliente" style="text;html=1;align=center;verticalAlign=middle;resizable=0;points=[];autosize=1;strokeColor=none;fillColor=none;" parent="1" vertex="1">
          <mxGeometry x="75" y="440" width="60" height="30" as="geometry" />
        </mxCell>
        <mxCell id="Qn465LdnRMyvGribWFui-31" value="&lt;u&gt;ID Cliente&lt;/u&gt;" style="rounded=0;whiteSpace=wrap;html=1;" parent="1" vertex="1">
          <mxGeometry x="40" y="470" width="80" height="30" as="geometry" />
        </mxCell>
        <mxCell id="Qn465LdnRMyvGribWFui-32" value="Nome" style="rounded=0;whiteSpace=wrap;html=1;" parent="1" vertex="1">
          <mxGeometry x="120" y="470" width="60" height="30" as="geometry" />
        </mxCell>
        <mxCell id="Qn465LdnRMyvGribWFui-33" value="Email" style="rounded=0;whiteSpace=wrap;html=1;" parent="1" vertex="1">
          <mxGeometry x="180" y="470" width="80" height="30" as="geometry" />
        </mxCell>
        <mxCell id="Qn465LdnRMyvGribWFui-34" value="Telefone" style="rounded=0;whiteSpace=wrap;html=1;" parent="1" vertex="1">
          <mxGeometry x="260" y="470" width="70" height="30" as="geometry" />
        </mxCell>
        <mxCell id="Qn465LdnRMyvGribWFui-41" value="Venda Cliente" style="text;html=1;align=center;verticalAlign=middle;resizable=0;points=[];autosize=1;strokeColor=none;fillColor=none;" parent="1" vertex="1">
          <mxGeometry x="55" y="550" width="100" height="30" as="geometry" />
        </mxCell>
        <mxCell id="Qn465LdnRMyvGribWFui-42" value="&lt;u&gt;Cliente&lt;/u&gt;" style="rounded=0;whiteSpace=wrap;html=1;" parent="1" vertex="1">
          <mxGeometry x="40" y="580" width="80" height="30" as="geometry" />
        </mxCell>
        <mxCell id="Qn465LdnRMyvGribWFui-43" value="&lt;u&gt;Veículo&lt;/u&gt;" style="rounded=0;whiteSpace=wrap;html=1;" parent="1" vertex="1">
          <mxGeometry x="120" y="580" width="60" height="30" as="geometry" />
        </mxCell>
        <mxCell id="Qn465LdnRMyvGribWFui-44" value="Data venda" style="rounded=0;whiteSpace=wrap;html=1;" parent="1" vertex="1">
          <mxGeometry x="180" y="580" width="60" height="30" as="geometry" />
        </mxCell>
        <mxCell id="Qn465LdnRMyvGribWFui-45" value="Montante" style="rounded=0;whiteSpace=wrap;html=1;" parent="1" vertex="1">
          <mxGeometry x="240" y="580" width="60" height="30" as="geometry" />
        </mxCell>
        <mxCell id="Qn465LdnRMyvGribWFui-46" value="Opções de Pagamento" style="rounded=0;whiteSpace=wrap;html=1;" parent="1" vertex="1">
          <mxGeometry x="40" y="610" width="80" height="30" as="geometry" />
        </mxCell>
        <mxCell id="Qn465LdnRMyvGribWFui-47" value="Vendedor" style="rounded=0;whiteSpace=wrap;html=1;" parent="1" vertex="1">
          <mxGeometry x="120" y="610" width="60" height="30" as="geometry" />
        </mxCell>
        <mxCell id="Qn465LdnRMyvGribWFui-49" value="Reparação Cliente" style="text;html=1;align=center;verticalAlign=middle;resizable=0;points=[];autosize=1;strokeColor=none;fillColor=none;" parent="1" vertex="1">
          <mxGeometry x="45" y="750" width="120" height="30" as="geometry" />
        </mxCell>
        <mxCell id="Qn465LdnRMyvGribWFui-50" value="&lt;u&gt;Cliente&lt;/u&gt;" style="rounded=0;whiteSpace=wrap;html=1;" parent="1" vertex="1">
          <mxGeometry x="40" y="780" width="80" height="30" as="geometry" />
        </mxCell>
        <mxCell id="Qn465LdnRMyvGribWFui-51" value="&lt;u&gt;Veículo&lt;/u&gt;" style="rounded=0;whiteSpace=wrap;html=1;" parent="1" vertex="1">
          <mxGeometry x="120" y="780" width="60" height="30" as="geometry" />
        </mxCell>
        <mxCell id="Qn465LdnRMyvGribWFui-52" value="Data entrada" style="rounded=0;whiteSpace=wrap;html=1;" parent="1" vertex="1">
          <mxGeometry x="180" y="780" width="60" height="30" as="geometry" />
        </mxCell>
        <mxCell id="Qn465LdnRMyvGribWFui-53" value="Descrição do problema" style="rounded=0;whiteSpace=wrap;html=1;" parent="1" vertex="1">
          <mxGeometry x="240" y="780" width="90" height="30" as="geometry" />
        </mxCell>
        <mxCell id="Qn465LdnRMyvGribWFui-56" value="Aluguer Cliente" style="text;html=1;align=center;verticalAlign=middle;resizable=0;points=[];autosize=1;strokeColor=none;fillColor=none;" parent="1" vertex="1">
          <mxGeometry x="45" y="670" width="110" height="30" as="geometry" />
        </mxCell>
        <mxCell id="Qn465LdnRMyvGribWFui-57" value="&lt;u&gt;Cliente&lt;/u&gt;" style="rounded=0;whiteSpace=wrap;html=1;" parent="1" vertex="1">
          <mxGeometry x="40" y="700" width="80" height="30" as="geometry" />
        </mxCell>
        <mxCell id="Qn465LdnRMyvGribWFui-58" value="&lt;u&gt;Veículo&lt;/u&gt;" style="rounded=0;whiteSpace=wrap;html=1;" parent="1" vertex="1">
          <mxGeometry x="120" y="700" width="60" height="30" as="geometry" />
        </mxCell>
        <mxCell id="Qn465LdnRMyvGribWFui-59" value="Data saída" style="rounded=0;whiteSpace=wrap;html=1;" parent="1" vertex="1">
          <mxGeometry x="420" y="780" width="60" height="30" as="geometry" />
        </mxCell>
        <mxCell id="Qn465LdnRMyvGribWFui-60" value="Diagnóstico" style="rounded=0;whiteSpace=wrap;html=1;" parent="1" vertex="1">
          <mxGeometry x="330" y="780" width="90" height="30" as="geometry" />
        </mxCell>
        <mxCell id="Qn465LdnRMyvGribWFui-61" value="Técnico Assinante" style="rounded=0;whiteSpace=wrap;html=1;" parent="1" vertex="1">
          <mxGeometry x="630" y="780" width="80" height="30" as="geometry" />
        </mxCell>
        <mxCell id="Qn465LdnRMyvGribWFui-62" value="Montante" style="rounded=0;whiteSpace=wrap;html=1;" parent="1" vertex="1">
          <mxGeometry x="570" y="780" width="60" height="30" as="geometry" />
        </mxCell>
        <mxCell id="Qn465LdnRMyvGribWFui-63" value="Opções de Pagamento" style="rounded=0;whiteSpace=wrap;html=1;" parent="1" vertex="1">
          <mxGeometry x="480" y="780" width="90" height="30" as="geometry" />
        </mxCell>
        <mxCell id="Qn465LdnRMyvGribWFui-64" value="Compra Cliente" style="text;html=1;align=center;verticalAlign=middle;resizable=0;points=[];autosize=1;strokeColor=none;fillColor=none;" parent="1" vertex="1">
          <mxGeometry x="-260" y="670" width="110" height="30" as="geometry" />
        </mxCell>
        <mxCell id="Qn465LdnRMyvGribWFui-65" value="&lt;u&gt;Cliente&lt;/u&gt;" style="rounded=0;whiteSpace=wrap;html=1;" parent="1" vertex="1">
          <mxGeometry x="-280" y="700" width="80" height="30" as="geometry" />
        </mxCell>
        <mxCell id="Qn465LdnRMyvGribWFui-66" value="&lt;u&gt;Veículo&lt;/u&gt;" style="rounded=0;whiteSpace=wrap;html=1;" parent="1" vertex="1">
          <mxGeometry x="-200" y="700" width="60" height="30" as="geometry" />
        </mxCell>
        <mxCell id="Qn465LdnRMyvGribWFui-67" value="Data compra" style="rounded=0;whiteSpace=wrap;html=1;" parent="1" vertex="1">
          <mxGeometry x="-140" y="700" width="60" height="30" as="geometry" />
        </mxCell>
        <mxCell id="Qn465LdnRMyvGribWFui-68" value="Montante" style="rounded=0;whiteSpace=wrap;html=1;" parent="1" vertex="1">
          <mxGeometry x="-80" y="700" width="60" height="30" as="geometry" />
        </mxCell>
        <mxCell id="wU5iVriTHLfADuxdz-Wk-2" value="Carros" style="text;html=1;align=center;verticalAlign=middle;resizable=0;points=[];autosize=1;strokeColor=none;fillColor=none;" parent="1" vertex="1">
          <mxGeometry x="90" y="230" width="60" height="30" as="geometry" />
        </mxCell>
        <mxCell id="wU5iVriTHLfADuxdz-Wk-9" value="Portas" style="rounded=0;whiteSpace=wrap;html=1;" parent="1" vertex="1">
          <mxGeometry x="200" y="260" width="70" height="30" as="geometry" />
        </mxCell>
        <mxCell id="wU5iVriTHLfADuxdz-Wk-11" value="Lugares" style="rounded=0;whiteSpace=wrap;html=1;" parent="1" vertex="1">
          <mxGeometry x="120" y="260" width="80" height="30" as="geometry" />
        </mxCell>
        <mxCell id="wU5iVriTHLfADuxdz-Wk-13" value="Tipo Caixa" style="rounded=0;whiteSpace=wrap;html=1;" parent="1" vertex="1">
          <mxGeometry x="270" y="260" width="70" height="30" as="geometry" />
        </mxCell>
        <mxCell id="wU5iVriTHLfADuxdz-Wk-17" value="Motas" style="text;html=1;align=center;verticalAlign=middle;resizable=0;points=[];autosize=1;strokeColor=none;fillColor=none;" parent="1" vertex="1">
          <mxGeometry x="410" y="230" width="60" height="30" as="geometry" />
        </mxCell>
        <mxCell id="wU5iVriTHLfADuxdz-Wk-23" value="Peça" style="text;html=1;align=center;verticalAlign=middle;resizable=0;points=[];autosize=1;strokeColor=none;fillColor=none;" parent="1" vertex="1">
          <mxGeometry x="-430" y="360" width="50" height="30" as="geometry" />
        </mxCell>
        <mxCell id="wU5iVriTHLfADuxdz-Wk-24" value="Sub-categoria" style="rounded=0;whiteSpace=wrap;html=1;" parent="1" vertex="1">
          <mxGeometry x="-320" y="390" width="100" height="30" as="geometry" />
        </mxCell>
        <mxCell id="wU5iVriTHLfADuxdz-Wk-25" value="Categoria" style="rounded=0;whiteSpace=wrap;html=1;" parent="1" vertex="1">
          <mxGeometry x="-400" y="390" width="80" height="30" as="geometry" />
        </mxCell>
        <mxCell id="wU5iVriTHLfADuxdz-Wk-26" value="Stand Auto" style="rounded=0;whiteSpace=wrap;html=1;" parent="1" vertex="1">
          <mxGeometry x="-120" y="390" width="70" height="30" as="geometry" />
        </mxCell>
        <mxCell id="wU5iVriTHLfADuxdz-Wk-28" value="" style="endArrow=classic;html=1;rounded=0;entryX=0.25;entryY=1;entryDx=0;entryDy=0;exitX=0.25;exitY=0;exitDx=0;exitDy=0;" parent="1" source="Qn465LdnRMyvGribWFui-42" target="Qn465LdnRMyvGribWFui-31" edge="1">
          <mxGeometry width="50" height="50" relative="1" as="geometry">
            <mxPoint x="130" y="700" as="sourcePoint" />
            <mxPoint x="180" y="650" as="targetPoint" />
          </mxGeometry>
        </mxCell>
        <mxCell id="wU5iVriTHLfADuxdz-Wk-29" value="" style="endArrow=none;html=1;rounded=0;exitX=-0.001;exitY=0.645;exitDx=0;exitDy=0;exitPerimeter=0;" parent="1" source="Qn465LdnRMyvGribWFui-50" edge="1">
          <mxGeometry width="50" height="50" relative="1" as="geometry">
            <mxPoint x="130" y="700" as="sourcePoint" />
            <mxPoint x="60" y="550" as="targetPoint" />
            <Array as="points">
              <mxPoint x="20" y="800" />
              <mxPoint x="20" y="550" />
            </Array>
          </mxGeometry>
        </mxCell>
        <mxCell id="wU5iVriTHLfADuxdz-Wk-30" value="" style="endArrow=none;html=1;rounded=0;" parent="1" edge="1">
          <mxGeometry width="50" height="50" relative="1" as="geometry">
            <mxPoint x="40" y="720" as="sourcePoint" />
            <mxPoint x="20" y="800" as="targetPoint" />
            <Array as="points">
              <mxPoint x="20" y="720" />
            </Array>
          </mxGeometry>
        </mxCell>
        <mxCell id="D3iCm0agme_MWSXdnHxS-1" value="Data inicio" style="rounded=0;whiteSpace=wrap;html=1;" parent="1" vertex="1">
          <mxGeometry x="180" y="700" width="60" height="30" as="geometry" />
        </mxCell>
        <mxCell id="D3iCm0agme_MWSXdnHxS-2" value="Data fim" style="rounded=0;whiteSpace=wrap;html=1;" parent="1" vertex="1">
          <mxGeometry x="240" y="700" width="60" height="30" as="geometry" />
        </mxCell>
        <mxCell id="D3iCm0agme_MWSXdnHxS-3" value="Montante" style="rounded=0;whiteSpace=wrap;html=1;" parent="1" vertex="1">
          <mxGeometry x="300" y="700" width="60" height="30" as="geometry" />
        </mxCell>
        <mxCell id="D3iCm0agme_MWSXdnHxS-4" value="&lt;u&gt;Cliente&lt;/u&gt;" style="rounded=0;whiteSpace=wrap;html=1;" parent="1" vertex="1">
          <mxGeometry x="-300" y="470" width="80" height="30" as="geometry" />
        </mxCell>
        <mxCell id="D3iCm0agme_MWSXdnHxS-5" value="&lt;u&gt;Peça&lt;/u&gt;" style="rounded=0;whiteSpace=wrap;html=1;" parent="1" vertex="1">
          <mxGeometry x="-480" y="470" width="60" height="30" as="geometry" />
        </mxCell>
        <mxCell id="D3iCm0agme_MWSXdnHxS-6" value="Data venda" style="rounded=0;whiteSpace=wrap;html=1;" parent="1" vertex="1">
          <mxGeometry x="-420" y="470" width="60" height="30" as="geometry" />
        </mxCell>
        <mxCell id="D3iCm0agme_MWSXdnHxS-7" value="Montante" style="rounded=0;whiteSpace=wrap;html=1;" parent="1" vertex="1">
          <mxGeometry x="-360" y="470" width="60" height="30" as="geometry" />
        </mxCell>
        <mxCell id="D3iCm0agme_MWSXdnHxS-10" value="Venda de Peça" style="text;html=1;align=center;verticalAlign=middle;resizable=0;points=[];autosize=1;strokeColor=none;fillColor=none;" parent="1" vertex="1">
          <mxGeometry x="-450" y="440" width="100" height="30" as="geometry" />
        </mxCell>
        <mxCell id="D3iCm0agme_MWSXdnHxS-11" value="" style="endArrow=classic;html=1;rounded=0;exitX=1;exitY=0.5;exitDx=0;exitDy=0;entryX=0;entryY=0.5;entryDx=0;entryDy=0;" parent="1" source="D3iCm0agme_MWSXdnHxS-4" target="Qn465LdnRMyvGribWFui-31" edge="1">
          <mxGeometry width="50" height="50" relative="1" as="geometry">
            <mxPoint x="180" y="530" as="sourcePoint" />
            <mxPoint y="485" as="targetPoint" />
          </mxGeometry>
        </mxCell>
        <mxCell id="D3iCm0agme_MWSXdnHxS-12" value="" style="endArrow=classic;html=1;rounded=0;exitX=0.316;exitY=-0.015;exitDx=0;exitDy=0;entryX=0.25;entryY=1;entryDx=0;entryDy=0;exitPerimeter=0;" parent="1" source="D3iCm0agme_MWSXdnHxS-5" target="D3iCm0agme_MWSXdnHxS-13" edge="1">
          <mxGeometry width="50" height="50" relative="1" as="geometry">
            <mxPoint x="40" y="600" as="sourcePoint" />
            <mxPoint x="-380" y="420" as="targetPoint" />
          </mxGeometry>
        </mxCell>
        <mxCell id="D3iCm0agme_MWSXdnHxS-13" value="&lt;u&gt;Designaçao&lt;/u&gt;" style="rounded=0;whiteSpace=wrap;html=1;" parent="1" vertex="1">
          <mxGeometry x="-480" y="390" width="80" height="30" as="geometry" />
        </mxCell>
        <mxCell id="D3iCm0agme_MWSXdnHxS-14" value="Encomenda de Peça" style="text;html=1;align=center;verticalAlign=middle;resizable=0;points=[];autosize=1;strokeColor=none;fillColor=none;" parent="1" vertex="1">
          <mxGeometry x="-480" y="280" width="130" height="30" as="geometry" />
        </mxCell>
        <mxCell id="D3iCm0agme_MWSXdnHxS-16" value="Fornecedor" style="rounded=0;whiteSpace=wrap;html=1;" parent="1" vertex="1">
          <mxGeometry x="-400" y="310" width="80" height="30" as="geometry" />
        </mxCell>
        <mxCell id="D3iCm0agme_MWSXdnHxS-18" value="&lt;u&gt;Peça&lt;/u&gt;" style="rounded=0;whiteSpace=wrap;html=1;" parent="1" vertex="1">
          <mxGeometry x="-480" y="310" width="80" height="30" as="geometry" />
        </mxCell>
        <mxCell id="Yqm68rwoxvGMI7DC4jk8-2" value="&lt;u&gt;Id&lt;/u&gt;" style="rounded=0;whiteSpace=wrap;html=1;" parent="1" vertex="1">
          <mxGeometry x="840" y="540" width="80" height="30" as="geometry" />
        </mxCell>
        <mxCell id="Yqm68rwoxvGMI7DC4jk8-6" value="Gerente" style="text;html=1;align=center;verticalAlign=middle;resizable=0;points=[];autosize=1;strokeColor=none;fillColor=none;" parent="1" vertex="1">
          <mxGeometry x="840" y="510" width="70" height="30" as="geometry" />
        </mxCell>
        <mxCell id="Yqm68rwoxvGMI7DC4jk8-7" value="&lt;u&gt;Id&lt;/u&gt;" style="rounded=0;whiteSpace=wrap;html=1;" parent="1" vertex="1">
          <mxGeometry x="680" y="540" width="80" height="30" as="geometry" />
        </mxCell>
        <mxCell id="Yqm68rwoxvGMI7DC4jk8-8" value="Vendedor" style="text;html=1;align=center;verticalAlign=middle;resizable=0;points=[];autosize=1;strokeColor=none;fillColor=none;" parent="1" vertex="1">
          <mxGeometry x="685" y="510" width="70" height="30" as="geometry" />
        </mxCell>
        <mxCell id="Yqm68rwoxvGMI7DC4jk8-9" value="&lt;u&gt;Id&lt;/u&gt;" style="rounded=0;whiteSpace=wrap;html=1;" parent="1" vertex="1">
          <mxGeometry x="680" y="690" width="80" height="30" as="geometry" />
        </mxCell>
        <mxCell id="Yqm68rwoxvGMI7DC4jk8-10" value="Mecanico" style="text;html=1;align=center;verticalAlign=middle;resizable=0;points=[];autosize=1;strokeColor=none;fillColor=none;" parent="1" vertex="1">
          <mxGeometry x="685" y="660" width="70" height="30" as="geometry" />
        </mxCell>
        <mxCell id="4JToIcoDa0rPHe7kI28f-5" value="Fornecedor" style="text;html=1;align=center;verticalAlign=middle;resizable=0;points=[];autosize=1;strokeColor=none;fillColor=none;" parent="1" vertex="1">
          <mxGeometry x="-480" y="180" width="80" height="30" as="geometry" />
        </mxCell>
        <mxCell id="4JToIcoDa0rPHe7kI28f-6" value="&lt;u&gt;NIF&lt;/u&gt;" style="rounded=0;whiteSpace=wrap;html=1;" parent="1" vertex="1">
          <mxGeometry x="-480" y="210" width="80" height="30" as="geometry" />
        </mxCell>
        <mxCell id="4JToIcoDa0rPHe7kI28f-11" value="" style="endArrow=none;html=1;rounded=0;strokeColor=#CC6600;" parent="1" edge="1">
          <mxGeometry width="50" height="50" relative="1" as="geometry">
            <mxPoint x="160" y="700" as="sourcePoint" />
            <mxPoint x="420" y="520" as="targetPoint" />
            <Array as="points">
              <mxPoint x="160" y="660" />
              <mxPoint x="420" y="660" />
            </Array>
          </mxGeometry>
        </mxCell>
        <mxCell id="4JToIcoDa0rPHe7kI28f-16" value="" style="endArrow=classic;html=1;rounded=0;" parent="1" edge="1">
          <mxGeometry width="50" height="50" relative="1" as="geometry">
            <mxPoint x="710" y="800" as="sourcePoint" />
            <mxPoint x="730" y="720" as="targetPoint" />
            <Array as="points">
              <mxPoint x="730" y="800" />
            </Array>
          </mxGeometry>
        </mxCell>
        <mxCell id="4JToIcoDa0rPHe7kI28f-18" value="" style="endArrow=classic;html=1;rounded=0;exitX=0.25;exitY=1;exitDx=0;exitDy=0;entryX=0.25;entryY=0;entryDx=0;entryDy=0;" parent="1" source="D3iCm0agme_MWSXdnHxS-18" target="D3iCm0agme_MWSXdnHxS-13" edge="1">
          <mxGeometry width="50" height="50" relative="1" as="geometry">
            <mxPoint x="-30" y="600" as="sourcePoint" />
            <mxPoint x="20" y="550" as="targetPoint" />
          </mxGeometry>
        </mxCell>
        <mxCell id="4JToIcoDa0rPHe7kI28f-20" value="&lt;u&gt;Matrícula&lt;/u&gt;" style="rounded=0;whiteSpace=wrap;html=1;" parent="1" vertex="1">
          <mxGeometry x="40" y="260" width="80" height="30" as="geometry" />
        </mxCell>
        <mxCell id="4JToIcoDa0rPHe7kI28f-21" value="&lt;u&gt;Matrícula&lt;/u&gt;" style="rounded=0;whiteSpace=wrap;html=1;" parent="1" vertex="1">
          <mxGeometry x="400" y="260" width="80" height="30" as="geometry" />
        </mxCell>
        <mxCell id="4JToIcoDa0rPHe7kI28f-22" value="" style="endArrow=classic;html=1;rounded=0;exitX=0.25;exitY=1;exitDx=0;exitDy=0;entryX=0.25;entryY=0;entryDx=0;entryDy=0;" parent="1" source="4JToIcoDa0rPHe7kI28f-20" target="Qn465LdnRMyvGribWFui-1" edge="1">
          <mxGeometry width="50" height="50" relative="1" as="geometry">
            <mxPoint x="90" y="490" as="sourcePoint" />
            <mxPoint x="140" y="440" as="targetPoint" />
          </mxGeometry>
        </mxCell>
        <mxCell id="4JToIcoDa0rPHe7kI28f-23" value="" style="endArrow=classic;html=1;rounded=0;exitX=0.25;exitY=1;exitDx=0;exitDy=0;entryX=0.5;entryY=0;entryDx=0;entryDy=0;" parent="1" source="4JToIcoDa0rPHe7kI28f-21" target="Qn465LdnRMyvGribWFui-1" edge="1">
          <mxGeometry width="50" height="50" relative="1" as="geometry">
            <mxPoint x="90" y="490" as="sourcePoint" />
            <mxPoint x="140" y="440" as="targetPoint" />
            <Array as="points">
              <mxPoint x="420" y="300" />
              <mxPoint x="80" y="300" />
            </Array>
          </mxGeometry>
        </mxCell>
        <mxCell id="71fEN-sqeS3WfiMj0jDg-1" value="" style="endArrow=none;html=1;rounded=0;exitX=0.672;exitY=-0.022;exitDx=0;exitDy=0;exitPerimeter=0;strokeColor=#CC6600;" parent="1" source="Qn465LdnRMyvGribWFui-51" edge="1">
          <mxGeometry width="50" height="50" relative="1" as="geometry">
            <mxPoint x="200" y="720" as="sourcePoint" />
            <mxPoint x="420" y="660" as="targetPoint" />
            <Array as="points">
              <mxPoint x="160" y="750" />
              <mxPoint x="420" y="750" />
            </Array>
          </mxGeometry>
        </mxCell>
        <mxCell id="71fEN-sqeS3WfiMj0jDg-6" value="" style="endArrow=classic;html=1;rounded=0;entryX=0.25;entryY=1;entryDx=0;entryDy=0;exitX=0.25;exitY=0;exitDx=0;exitDy=0;" parent="1" source="Qn465LdnRMyvGribWFui-23" target="Qn465LdnRMyvGribWFui-19" edge="1">
          <mxGeometry width="50" height="50" relative="1" as="geometry">
            <mxPoint x="950" y="460" as="sourcePoint" />
            <mxPoint x="1000" y="410" as="targetPoint" />
          </mxGeometry>
        </mxCell>
        <mxCell id="SBwoDkeAmP1uHZbp9Lkf-1" value="" style="endArrow=classic;html=1;rounded=0;entryX=0.25;entryY=1;entryDx=0;entryDy=0;exitX=0.622;exitY=-0.012;exitDx=0;exitDy=0;exitPerimeter=0;" parent="1" source="D3iCm0agme_MWSXdnHxS-16" target="4JToIcoDa0rPHe7kI28f-6" edge="1">
          <mxGeometry width="50" height="50" relative="1" as="geometry">
            <mxPoint x="-280" y="280" as="sourcePoint" />
            <mxPoint x="-220" y="300" as="targetPoint" />
            <Array as="points">
              <mxPoint x="-350" y="260" />
              <mxPoint x="-460" y="260" />
            </Array>
          </mxGeometry>
        </mxCell>
        <mxCell id="SBwoDkeAmP1uHZbp9Lkf-4" value="" style="endArrow=classic;html=1;rounded=0;entryX=0.25;entryY=1;entryDx=0;entryDy=0;strokeColor=#CC6600;" parent="1" target="Qn465LdnRMyvGribWFui-10" edge="1">
          <mxGeometry width="50" height="50" relative="1" as="geometry">
            <mxPoint x="160" y="580" as="sourcePoint" />
            <mxPoint x="590" y="560" as="targetPoint" />
            <Array as="points">
              <mxPoint x="160" y="540" />
              <mxPoint x="420" y="540" />
              <mxPoint x="420" y="480" />
              <mxPoint x="420" y="410" />
              <mxPoint x="60" y="410" />
            </Array>
          </mxGeometry>
        </mxCell>
        <mxCell id="SBwoDkeAmP1uHZbp9Lkf-5" value="" style="endArrow=classic;html=1;rounded=0;entryX=-0.002;entryY=0.327;entryDx=0;entryDy=0;entryPerimeter=0;" parent="1" target="Qn465LdnRMyvGribWFui-19" edge="1">
          <mxGeometry width="50" height="50" relative="1" as="geometry">
            <mxPoint x="490" y="340" as="sourcePoint" />
            <mxPoint x="440" y="480" as="targetPoint" />
          </mxGeometry>
        </mxCell>
        <mxCell id="SBwoDkeAmP1uHZbp9Lkf-6" value="" style="endArrow=classic;html=1;rounded=0;exitX=1;exitY=0.5;exitDx=0;exitDy=0;" parent="1" source="Qn465LdnRMyvGribWFui-47" edge="1">
          <mxGeometry width="50" height="50" relative="1" as="geometry">
            <mxPoint x="670" y="760" as="sourcePoint" />
            <mxPoint x="730" y="570" as="targetPoint" />
            <Array as="points">
              <mxPoint x="730" y="625" />
            </Array>
          </mxGeometry>
        </mxCell>
        <mxCell id="SBwoDkeAmP1uHZbp9Lkf-7" value="" style="endArrow=classic;html=1;rounded=0;exitX=0.993;exitY=0.345;exitDx=0;exitDy=0;exitPerimeter=0;entryX=0.365;entryY=1.007;entryDx=0;entryDy=0;entryPerimeter=0;" parent="1" source="Yqm68rwoxvGMI7DC4jk8-7" target="Qn465LdnRMyvGribWFui-25" edge="1">
          <mxGeometry width="50" height="50" relative="1" as="geometry">
            <mxPoint x="790" y="550" as="sourcePoint" />
            <mxPoint x="809" y="440" as="targetPoint" />
            <Array as="points">
              <mxPoint x="790" y="550" />
            </Array>
          </mxGeometry>
        </mxCell>
        <mxCell id="SBwoDkeAmP1uHZbp9Lkf-9" value="" style="endArrow=none;html=1;rounded=0;exitX=0.994;exitY=0.667;exitDx=0;exitDy=0;exitPerimeter=0;" parent="1" source="Yqm68rwoxvGMI7DC4jk8-9" edge="1">
          <mxGeometry width="50" height="50" relative="1" as="geometry">
            <mxPoint x="650" y="620" as="sourcePoint" />
            <mxPoint x="790" y="550" as="targetPoint" />
            <Array as="points">
              <mxPoint x="790" y="710" />
            </Array>
          </mxGeometry>
        </mxCell>
        <mxCell id="SBwoDkeAmP1uHZbp9Lkf-10" value="" style="endArrow=classic;html=1;rounded=0;entryX=0.617;entryY=0.979;entryDx=0;entryDy=0;entryPerimeter=0;" parent="1" target="Qn465LdnRMyvGribWFui-25" edge="1">
          <mxGeometry width="50" height="50" relative="1" as="geometry">
            <mxPoint x="840" y="550" as="sourcePoint" />
            <mxPoint x="700" y="600" as="targetPoint" />
            <Array as="points">
              <mxPoint x="810" y="550" />
            </Array>
          </mxGeometry>
        </mxCell>
        <mxCell id="SBwoDkeAmP1uHZbp9Lkf-12" value="Morada" style="rounded=0;whiteSpace=wrap;html=1;" parent="1" vertex="1">
          <mxGeometry x="-330" y="210" width="80" height="30" as="geometry" />
        </mxCell>
        <mxCell id="SBwoDkeAmP1uHZbp9Lkf-13" value="Telefone" style="rounded=0;whiteSpace=wrap;html=1;" parent="1" vertex="1">
          <mxGeometry x="-250" y="210" width="80" height="30" as="geometry" />
        </mxCell>
        <mxCell id="SBwoDkeAmP1uHZbp9Lkf-14" value="Email" style="rounded=0;whiteSpace=wrap;html=1;" parent="1" vertex="1">
          <mxGeometry x="-170" y="210" width="80" height="30" as="geometry" />
        </mxCell>
        <mxCell id="SBwoDkeAmP1uHZbp9Lkf-17" value="" style="endArrow=classic;html=1;rounded=0;exitX=1.006;exitY=0.641;exitDx=0;exitDy=0;exitPerimeter=0;entryX=0.01;entryY=0.669;entryDx=0;entryDy=0;entryPerimeter=0;" parent="1" source="wU5iVriTHLfADuxdz-Wk-26" target="Qn465LdnRMyvGribWFui-19" edge="1">
          <mxGeometry width="50" height="50" relative="1" as="geometry">
            <mxPoint x="90" y="440" as="sourcePoint" />
            <mxPoint x="580" y="390" as="targetPoint" />
            <Array as="points">
              <mxPoint x="20" y="410" />
              <mxPoint x="20" y="430" />
              <mxPoint x="560" y="430" />
              <mxPoint x="560" y="350" />
            </Array>
          </mxGeometry>
        </mxCell>
        <mxCell id="OUG-vwU-H_kE1kT-Vu-I-1" value="Telefone" style="rounded=0;whiteSpace=wrap;html=1;" parent="1" vertex="1">
          <mxGeometry x="900" y="330" width="70" height="30" as="geometry" />
        </mxCell>
        <mxCell id="OUG-vwU-H_kE1kT-Vu-I-2" value="Email" style="rounded=0;whiteSpace=wrap;html=1;" parent="1" vertex="1">
          <mxGeometry x="970" y="330" width="70" height="30" as="geometry" />
        </mxCell>
        <mxCell id="OUG-vwU-H_kE1kT-Vu-I-3" value="" style="endArrow=none;html=1;rounded=0;exitX=0.25;exitY=0;exitDx=0;exitDy=0;" parent="1" source="Qn465LdnRMyvGribWFui-65" edge="1">
          <mxGeometry width="50" height="50" relative="1" as="geometry">
            <mxPoint x="340" y="660" as="sourcePoint" />
            <mxPoint x="20" y="550" as="targetPoint" />
            <Array as="points">
              <mxPoint x="-260" y="550" />
            </Array>
          </mxGeometry>
        </mxCell>
        <mxCell id="OUG-vwU-H_kE1kT-Vu-I-4" value="" style="endArrow=none;html=1;rounded=0;strokeColor=#CC6600;" parent="1" edge="1">
          <mxGeometry width="50" height="50" relative="1" as="geometry">
            <mxPoint x="-160" y="700" as="sourcePoint" />
            <mxPoint x="160" y="660" as="targetPoint" />
            <Array as="points">
              <mxPoint x="-160" y="660" />
            </Array>
          </mxGeometry>
        </mxCell>
        <mxCell id="OUG-vwU-H_kE1kT-Vu-I-5" value="Compra Importador" style="text;html=1;align=center;verticalAlign=middle;resizable=0;points=[];autosize=1;strokeColor=none;fillColor=none;" parent="1" vertex="1">
          <mxGeometry x="-280" y="750" width="130" height="30" as="geometry" />
        </mxCell>
        <mxCell id="OUG-vwU-H_kE1kT-Vu-I-6" value="&lt;u&gt;Importador&lt;/u&gt;" style="rounded=0;whiteSpace=wrap;html=1;" parent="1" vertex="1">
          <mxGeometry x="-280" y="780" width="80" height="30" as="geometry" />
        </mxCell>
        <mxCell id="OUG-vwU-H_kE1kT-Vu-I-7" value="&lt;u&gt;Veículo&lt;/u&gt;" style="rounded=0;whiteSpace=wrap;html=1;" parent="1" vertex="1">
          <mxGeometry x="-200" y="780" width="60" height="30" as="geometry" />
        </mxCell>
        <mxCell id="OUG-vwU-H_kE1kT-Vu-I-8" value="Data compra" style="rounded=0;whiteSpace=wrap;html=1;" parent="1" vertex="1">
          <mxGeometry x="-140" y="780" width="60" height="30" as="geometry" />
        </mxCell>
        <mxCell id="OUG-vwU-H_kE1kT-Vu-I-9" value="Montante" style="rounded=0;whiteSpace=wrap;html=1;" parent="1" vertex="1">
          <mxGeometry x="-80" y="780" width="60" height="30" as="geometry" />
        </mxCell>
        <mxCell id="OUG-vwU-H_kE1kT-Vu-I-10" value="" style="endArrow=none;html=1;rounded=0;exitX=0.669;exitY=0.028;exitDx=0;exitDy=0;exitPerimeter=0;strokeColor=#CC6600;" parent="1" source="OUG-vwU-H_kE1kT-Vu-I-7" edge="1">
          <mxGeometry width="50" height="50" relative="1" as="geometry">
            <mxPoint x="330" y="660" as="sourcePoint" />
            <mxPoint y="660" as="targetPoint" />
            <Array as="points">
              <mxPoint x="-160" y="750" />
              <mxPoint y="750" />
            </Array>
          </mxGeometry>
        </mxCell>
        <mxCell id="OUG-vwU-H_kE1kT-Vu-I-15" value="Importador" style="text;html=1;align=center;verticalAlign=middle;resizable=0;points=[];autosize=1;strokeColor=none;fillColor=none;" parent="1" vertex="1">
          <mxGeometry x="-240" y="860" width="80" height="30" as="geometry" />
        </mxCell>
        <mxCell id="OUG-vwU-H_kE1kT-Vu-I-16" value="&lt;u&gt;Nome&lt;/u&gt;" style="rounded=0;whiteSpace=wrap;html=1;" parent="1" vertex="1">
          <mxGeometry x="-280" y="890" width="80" height="30" as="geometry" />
        </mxCell>
        <mxCell id="OUG-vwU-H_kE1kT-Vu-I-17" value="Morada" style="rounded=0;whiteSpace=wrap;html=1;" parent="1" vertex="1">
          <mxGeometry x="-200" y="890" width="80" height="30" as="geometry" />
        </mxCell>
        <mxCell id="OUG-vwU-H_kE1kT-Vu-I-18" value="Telefone" style="rounded=0;whiteSpace=wrap;html=1;" parent="1" vertex="1">
          <mxGeometry x="-120" y="890" width="80" height="30" as="geometry" />
        </mxCell>
        <mxCell id="OUG-vwU-H_kE1kT-Vu-I-19" value="Email" style="rounded=0;whiteSpace=wrap;html=1;" parent="1" vertex="1">
          <mxGeometry x="-40" y="890" width="80" height="30" as="geometry" />
        </mxCell>
        <mxCell id="OUG-vwU-H_kE1kT-Vu-I-21" value="" style="endArrow=classic;html=1;rounded=0;exitX=0.25;exitY=1;exitDx=0;exitDy=0;entryX=0.25;entryY=0;entryDx=0;entryDy=0;" parent="1" source="OUG-vwU-H_kE1kT-Vu-I-6" target="OUG-vwU-H_kE1kT-Vu-I-16" edge="1">
          <mxGeometry width="50" height="50" relative="1" as="geometry">
            <mxPoint x="400" y="880" as="sourcePoint" />
            <mxPoint x="450" y="830" as="targetPoint" />
          </mxGeometry>
        </mxCell>
        <mxCell id="20qQUec8NZuLMwjH_AeD-1" value="Quantidade/Stock" style="rounded=0;whiteSpace=wrap;html=1;" vertex="1" parent="1">
          <mxGeometry x="-220" y="390" width="100" height="30" as="geometry" />
        </mxCell>
        <mxCell id="20qQUec8NZuLMwjH_AeD-2" value="Nome" style="rounded=0;whiteSpace=wrap;html=1;" vertex="1" parent="1">
          <mxGeometry x="-400" y="210" width="70" height="30" as="geometry" />
        </mxCell>
        <mxCell id="20qQUec8NZuLMwjH_AeD-3" value="&lt;u&gt;Certificação&lt;/u&gt;" style="rounded=0;whiteSpace=wrap;html=1;" vertex="1" parent="1">
          <mxGeometry x="1000" y="540" width="80" height="30" as="geometry" />
        </mxCell>
        <mxCell id="20qQUec8NZuLMwjH_AeD-4" value="Certificação" style="text;html=1;align=center;verticalAlign=middle;resizable=0;points=[];autosize=1;strokeColor=none;fillColor=none;" vertex="1" parent="1">
          <mxGeometry x="990" y="510" width="90" height="30" as="geometry" />
        </mxCell>
        <mxCell id="20qQUec8NZuLMwjH_AeD-5" value="&lt;u&gt;Certificação&lt;/u&gt;" style="rounded=0;whiteSpace=wrap;html=1;" vertex="1" parent="1">
          <mxGeometry x="920" y="650" width="80" height="30" as="geometry" />
        </mxCell>
        <mxCell id="20qQUec8NZuLMwjH_AeD-6" value="Tem_Certificações" style="text;html=1;align=center;verticalAlign=middle;resizable=0;points=[];autosize=1;strokeColor=none;fillColor=none;" vertex="1" parent="1">
          <mxGeometry x="880" y="620" width="120" height="30" as="geometry" />
        </mxCell>
        <mxCell id="20qQUec8NZuLMwjH_AeD-7" value="&lt;u&gt;Gerente&lt;/u&gt;" style="rounded=0;whiteSpace=wrap;html=1;" vertex="1" parent="1">
          <mxGeometry x="840" y="650" width="80" height="30" as="geometry" />
        </mxCell>
        <mxCell id="20qQUec8NZuLMwjH_AeD-10" value="" style="endArrow=classic;html=1;rounded=0;entryX=0.25;entryY=1;entryDx=0;entryDy=0;exitX=0.25;exitY=0;exitDx=0;exitDy=0;" edge="1" parent="1" source="20qQUec8NZuLMwjH_AeD-7" target="Yqm68rwoxvGMI7DC4jk8-2">
          <mxGeometry width="50" height="50" relative="1" as="geometry">
            <mxPoint x="680" y="690" as="sourcePoint" />
            <mxPoint x="730" y="640" as="targetPoint" />
          </mxGeometry>
        </mxCell>
        <mxCell id="20qQUec8NZuLMwjH_AeD-11" value="" style="endArrow=classic;html=1;rounded=0;entryX=0.387;entryY=1.031;entryDx=0;entryDy=0;entryPerimeter=0;" edge="1" parent="1" target="20qQUec8NZuLMwjH_AeD-3">
          <mxGeometry width="50" height="50" relative="1" as="geometry">
            <mxPoint x="1000" y="660" as="sourcePoint" />
            <mxPoint x="870" y="580" as="targetPoint" />
            <Array as="points">
              <mxPoint x="1031" y="660" />
            </Array>
          </mxGeometry>
        </mxCell>
        <mxCell id="20qQUec8NZuLMwjH_AeD-12" value="Num Vendas" style="rounded=0;whiteSpace=wrap;html=1;" vertex="1" parent="1">
          <mxGeometry x="600" y="540" width="80" height="30" as="geometry" />
        </mxCell>
        <mxCell id="20qQUec8NZuLMwjH_AeD-13" value="Data" style="rounded=0;whiteSpace=wrap;html=1;" vertex="1" parent="1">
          <mxGeometry x="-320" y="310" width="80" height="30" as="geometry" />
        </mxCell>
      </root>
    </mxGraphModel>
  </diagram>
</mxfile>
